<?xml version="1.0" encoding="utf-8"?>
<!-- Generator: Adobe Illustrator 16.0.0, SVG Export Plug-In . SVG Version: 6.00 Build 0)  -->
<!DOCTYPE svg PUBLIC "-//W3C//DTD SVG 1.1//EN" "http://www.w3.org/Graphics/SVG/1.1/DTD/svg11.dtd">
<svg version="1.1" id="Layer_1" xmlns="http://www.w3.org/2000/svg" xmlns:xlink="http://www.w3.org/1999/xlink" x="0px" y="0px"
	 width="777px" height="226px" viewBox="0 0 777 226" enable-background="new 0 0 777 226" xml:space="preserve">
<g>
	<g>
		<path fill="#FCA800" d="M764.629,224.69H13.373c-6.583,0-11.92-5.337-11.92-11.921v-65.297c0-6.583,5.337-11.92,11.92-11.92
			h751.256c6.582,0,11.918,5.337,11.918,11.92v65.297C776.547,219.354,771.211,224.69,764.629,224.69"/>
		<path fill="#FFFFFF" d="M46.306,205.513c-16.691,0-26.309-11.684-26.309-29.409c0-17.724,9.22-29.407,25.036-29.407
			c7.471,0,15.181,2.383,20.348,11.444l-11.844,4.69c-1.987-3.736-4.689-5.962-8.424-5.962c-6.757,0-11.842,6.12-11.842,19.234
			s6.039,19.234,14.384,19.234c4.849,0,10.013-1.827,14.226-5.245l5.007,8.824C62.203,203.047,54.494,205.513,46.306,205.513"/>
		<path fill="#FFFFFF" d="M111.71,178.804v25.911H99.392v-23.764c0-4.609-1.989-7.551-5.724-7.551
			c-5.325,0-8.664,2.863-8.664,11.286v20.031H72.687v-60.327c2.144-0.954,4.45-1.67,6.597-1.67c3.654,0,5.724,2.385,5.724,5.724
			v21.223c3.337-4.372,7.868-5.964,12.637-5.964C106.543,163.703,111.71,169.268,111.71,178.804"/>
		<path fill="#FFFFFF" d="M151.202,193.113l4.85,7.709c-4.93,3.099-10.414,4.69-17.089,4.69c-12.637,0-20.107-7.392-20.107-19.948
			c0-13.673,7.867-21.858,21.299-21.858c10.096,0,15.975,5.085,15.975,13.433c0,8.028-7.391,12.796-19.709,12.796
			c-1.749,0-3.498-0.16-5.244-0.317c0.875,4.214,3.498,6.675,8.663,6.675C144.368,196.291,148.022,195.18,151.202,193.113
			 M130.936,182.7c1.826,0.158,3.653,0.239,5.325,0.239c5.085,0,7.948-1.908,7.948-5.246c0-2.703-1.908-4.452-5.245-4.452
			C134.512,173.241,131.57,176.736,130.936,182.7"/>
		<path fill="#FFFFFF" d="M202.776,178.804v25.911h-12.318v-23.764c0-4.609-1.989-7.551-5.724-7.551
			c-5.326,0-8.664,2.863-8.664,11.286v20.031h-12.318v-39.346c2.144-0.957,4.45-1.671,6.598-1.671c3.177,0,5.166,2.622,5.324,6.518
			c3.418-4.848,8.108-6.518,13.035-6.518C197.61,163.703,202.776,169.268,202.776,178.804"/>
		<path fill="#FFFFFF" d="M250.854,178.804v25.911h-12.318v-23.764c0-4.609-1.988-7.551-5.724-7.551
			c-5.324,0-8.664,2.863-8.664,11.286v20.031h-12.317v-39.346c2.144-0.957,4.45-1.671,6.597-1.671c3.178,0,5.166,2.622,5.326,6.518
			c3.417-4.848,8.107-6.518,13.033-6.518C245.688,163.703,250.854,169.268,250.854,178.804"/>
		<path fill="#FFFFFF" d="M293.845,178.802v25.037c-2.144,0.955-4.373,1.671-6.598,1.671c-3.1,0-5.086-2.543-5.325-6.2
			c-3.258,4.608-7.629,6.2-12,6.2c-8.026,0-12.875-4.692-12.875-12.32c0-8.425,7.074-13.353,19.551-13.353c1.59,0,3.259,0,4.93,0.08
			c-0.24-4.373-1.827-6.993-6.996-6.993c-3.497,0-7.073,1.112-10.253,3.177l-4.926-7.631c5.084-3.102,10.568-4.769,17.246-4.769
			C287.487,163.703,293.845,169.268,293.845,178.802 M281.527,186.992c-1.671-0.081-3.181-0.081-4.609-0.081
			c-5.248,0-8.188,1.908-8.188,5.166c0,2.542,1.432,4.371,4.609,4.371C277.551,196.449,281.527,193.826,281.527,186.992"/>
		<path fill="#FFFFFF" d="M301.944,151.7c0-4.131,2.622-6.437,6.836-6.437c4.211,0,6.834,2.307,6.834,6.437
			c0,4.213-2.623,6.597-6.834,6.597C304.566,158.297,301.944,155.913,301.944,151.7 M302.74,204.716h12.317v-40.218H302.74V204.716z
			"/>
		<path fill="#048028" d="M356.782,192.557h-20.903l-4.053,12.159h-12.32l20.663-56.351c2.226-1.114,4.532-1.672,6.757-1.672
			c4.133,0,7.234,2.146,8.981,6.995l18.601,51.027h-13.674L356.782,192.557z M353.523,182.7l-7.155-23.052l-7.231,23.052H353.523z"
			/>
		<path fill="#048028" d="M417.971,178.804v25.911h-12.318v-23.764c0-4.609-1.99-7.551-5.723-7.551
			c-5.326,0-8.662,2.863-8.662,11.286v20.031h-12.321v-39.346c2.146-0.957,4.454-1.671,6.599-1.671c3.181,0,5.166,2.622,5.324,6.518
			c3.418-4.848,8.109-6.518,13.035-6.518C412.805,163.703,417.971,169.268,417.971,178.804"/>
		<path fill="#048028" d="M465.65,164.498V207.1c0,10.568-6.916,16.69-18.834,16.69c-7.393,0-13.277-1.592-18.84-4.69l4.93-7.708
			c3.658,2.066,7.949,3.177,11.844,3.177c6.674,0,8.584-3.576,8.584-9.696v-5.086c-3.418,4.291-8.031,5.724-12.717,5.724
			c-9.299,0-15.422-7.233-15.422-19.552c0-14.068,8.266-22.255,22.258-22.255C451.506,163.703,459.93,164.02,465.65,164.498
			 M453.334,172.925c-1.828-0.081-3.418-0.081-4.771-0.081c-6.674,0-10.889,4.85-10.889,13.114c0,6.2,2.701,9.855,7.551,9.855
			c4.771,0,8.109-2.863,8.109-11.205V172.925z"/>
		<path fill="#048028" d="M508.959,178.802v25.037c-2.146,0.955-4.373,1.671-6.596,1.671c-3.104,0-5.084-2.543-5.324-6.2
			c-3.262,4.608-7.633,6.2-12,6.2c-8.029,0-12.879-4.692-12.879-12.32c0-8.425,7.07-13.353,19.551-13.353c1.59,0,3.262,0,4.93,0.08
			c-0.24-4.373-1.826-6.993-6.994-6.993c-3.498,0-7.074,1.112-10.254,3.177l-4.926-7.631c5.084-3.102,10.572-4.769,17.244-4.769
			C502.602,163.703,508.959,169.268,508.959,178.802 M496.641,186.992c-1.668-0.081-3.182-0.081-4.609-0.081
			c-5.246,0-8.188,1.908-8.188,5.166c0,2.542,1.43,4.371,4.607,4.371C492.666,196.449,496.641,193.826,496.641,186.992"/>
		<path fill="#048028" d="M556.477,148.442v55.396c-2.143,0.955-4.449,1.671-6.594,1.671c-3.102,0-5.086-2.624-5.326-6.277
			c-3.416,4.688-8.264,6.277-13.113,6.277c-9.301,0-15.422-7.233-15.422-19.552c0-14.068,8.266-22.255,22.26-22.255
			c1.51,0,3.576,0.081,5.877,0.159v-19.472c2.145-0.954,4.453-1.67,6.6-1.67C554.41,142.72,556.477,145.105,556.477,148.442
			 M544.158,172.925c-1.826-0.081-3.416-0.081-4.77-0.081c-6.672,0-10.887,4.85-10.887,13.114c0,6.2,2.701,9.855,7.551,9.855
			c4.771,0,8.105-2.781,8.105-11.205V172.925z"/>
		<path fill="#048028" d="M565.057,151.7c0-4.131,2.621-6.437,6.834-6.437c4.215,0,6.838,2.307,6.838,6.437
			c0,4.213-2.621,6.597-6.838,6.597C567.678,158.297,565.057,155.913,565.057,151.7 M565.85,204.716h12.32v-40.218h-12.32V204.716z"
			/>
		<path fill="#FFFFFF" d="M586.271,198.356c0-4.449,2.785-7.154,7.471-7.154c4.609,0,7.393,2.703,7.393,7.154
			c0,4.453-2.783,7.156-7.393,7.156C589.057,205.513,586.271,202.809,586.271,198.356"/>
		<path fill="#FFFFFF" d="M627.838,205.513c-13.035,0-20.824-7.791-20.824-20.983c0-13.115,8.584-20.824,19.791-20.824
			c4.93,0,12.879,1.988,15.422,11.289l-8.982,3.575c-1.035-3.099-2.939-5.166-5.801-5.166c-5.008,0-7.949,4.133-7.949,11.126
			c0,7.074,3.58,11.208,9.381,11.208c3.734,0,8.027-1.352,10.811-3.419l3.896,8.583C639.203,204.08,633.32,205.513,627.838,205.513"
			/>
		<path fill="#FFFFFF" d="M647.143,184.608c0-13.116,7.869-20.905,21.379-20.905c13.516,0,21.461,7.789,21.461,20.905
			c0,13.113-7.949,20.904-21.461,20.904C655.014,205.513,647.143,197.722,647.143,184.608 M677.506,184.608
			c0-6.994-3.336-11.208-8.902-11.208c-5.564,0-8.902,4.214-8.902,11.208c0,6.995,3.338,11.125,8.902,11.125
			C674.17,195.733,677.506,191.6,677.506,184.608"/>
		<path fill="#FFFFFF" d="M756.896,178.804v25.911H744.58v-23.764c0-4.609-1.273-7.551-4.295-7.551
			c-4.133,0-6.912,2.863-6.912,11.286v20.031h-12.32v-23.767c0-4.609-1.352-7.551-4.295-7.551c-4.051,0-6.912,2.863-6.912,11.286
			v20.031h-12.32v-39.346c2.148-0.957,4.453-1.671,6.598-1.671c3.1,0,5.004,2.464,5.326,6.12c3.018-4.53,7.152-6.12,11.443-6.12
			c4.848,0,8.426,2.146,10.492,5.963c3.574-4.533,7.787-5.963,12.955-5.963C752.289,163.703,756.896,169.268,756.896,178.804"/>
		<path fill="#048028" d="M273.673,120.226c-0.481-2.219-1.327-4.362-2.04-6.527c-1.43-4.332-2.757-8.703-4.364-12.971
			c-1.31-3.482-3.571-6.705-4.336-10.274c-1.313-6.119-1.268-12.15,0.398-18.571c1.442-5.564,2.368-11.891-1.033-17.902
			c-3.997-7.062-7.781-14.35-8.02-22.882c-0.081-2.847-0.981-5.74-1.903-8.479c-1.171-3.479-3.346-6.297-7.084-7.354
			c-3.935-1.111-4.661-1.992-4.624-6.053c0.022-2.226,0.556-4.756-0.301-6.613c-1.187-2.579-4.44-0.843-6.313-1.605
			c-4.349-1.77-7.678,0.317-11.34,1.533c-2.086,0.695-2.54,2.165-2.192,4.186c0.576,3.333,0.591,6.887,4.222,8.766
			c0.359,0.185,0.422,0.897,0.68,1.331c0.577,0.986,1.144,1.981,1.796,2.919c1.669,2.393,3.912,3.605,6.225,2.841
			c-0.17,4.807-0.341,9.3-0.481,13.795c-0.043,1.457,0.293,3.001-0.071,4.358c-0.511,1.901-1.3,3.809-2.375,5.449
			c-1.007,1.542-2.399,2.92-3.871,4.045c-2.666,2.036-5.36,4.144-8.333,5.645c-3.427,1.732-5.154,5.309-3.616,8.824
			c0.327,0.747,0.63,1.563,0.691,2.366c0.493,6.295-1.682,11.943-4.342,18.308c-2.028-2.867-3.294-5.636-5.391-7.428
			c-4.931-4.216-7.317-9.663-8.131-15.734c-0.853-6.374-1.028-12.84-1.333-19.276c-0.24-5.023-1.642-9.586-5.658-12.72
			c-4.785-3.736-10.123-6.698-16.237-7.531c-2.81-0.385-5.759,0.022-8.615,0.332c-2.861,0.312-5.671,1.127-8.533,1.403
			c-5.482,0.531-10.983,0.933-16.483,1.216c-8.612,0.443-17.09,0.182-24.546-5.12c-3.336-2.372-6.727-1.263-10.062,0.211
			c-5.105,2.256-10.188,4.586-15.371,6.654c-1.227,0.491-2.818,0.075-4.335,0.075c0.495-2.214,0.822-3.671,1.291-5.77
			c-2.029,0.598-3.429,1.008-4.955,1.452c0.518-2.863,1.494-5.579,1.383-8.25c-0.167-4.097-1.856-6.123-4.371-6.432
			c-0.131,4.534,0.381,9.358-3.954,12.26c-2.937-3.805-5.65-7.311-8.362-10.82c-0.52,0.242-1.038,0.485-1.56,0.729
			c0.631,2.382,0.884,4.955,1.982,7.099c1.535,3.006,1.787,5.793-0.015,8.56c-1.868,2.87-3.98,5.59-6.061,8.317
			c-0.326,0.424-1.052,0.759-1.598,0.766c-5.228,0.06-9.903,1.787-14.629,3.922c-1.79,0.809-4.54-0.448-6.798-0.98
			c-0.102-0.025,0.327-2.228,0.475-3.423c0.02-0.171-0.146-0.371-0.385-0.925c-1.448,0.36-2.96,0.738-4.844,1.21
			c-0.976-5.378,2.376-11.585-3.892-15.592v8.478c-1.784-2.049-0.817-5.582-4.494-6.161c-0.167,0.4-0.362,0.673-0.385,0.96
			c-0.06,0.725-0.188,1.49-0.029,2.177c1.303,5.62-1.041,9.504-5.502,12.734c-4.228,3.06-6.032,7.539-6.275,12.714
			c-0.053,1.111-0.243,2.322-0.741,3.298c-1.843,3.596-3.816,7.124-5.788,10.649c-1.241,2.225-1.487,4.309,0.504,6.252
			c3.166,3.088,6.272,3.582,10.009,1.273c3.228-1.994,6.51-2.726,10.047-1.119c5.107,2.32,10.324,2.62,15.815,1.589
			c6.649-1.251,7.433-0.521,8.29,6.146c0.686,5.323,3.67,8.513,8.852,9.496c0.993,0.19,1.973,0.452,3.804,0.879
			c-2.392,3.048-4.32,5.466-6.202,7.918c-2.886,3.76-2.957,4.741,0.095,8.438c1.917,2.321,4.093,4.439,6.266,6.536
			c2.954,2.847,6.057,5.544,9.021,8.383c1.625,1.557,0.68,8.8-1.324,10.862c-0.651,0.673-1.521,1.217-1.932,2.006
			c-0.31,0.596-0.045,1.49-0.035,2.255c0.223,0.87,3.811-0.438,3.811-0.438s0.903,0.747,2.783,1.241
			c1.03,0.272,1.368-0.239,1.463-0.755h0.023c2.935-4.518-0.44-10.24,2.307-14.771c3.987-0.64,4.038-0.832,3.006-4.626
			c-0.511-1.881-1.111-3.93-0.862-5.793c0.818-6.15,1.993-12.251,3.059-18.368c0.099-0.575,0.258-1.279,0.649-1.644
			c2.36-2.211,8.313-1.763,10.517,0.581c1.781,1.891,3.875,3.488,5.598,5.426c2.107,2.373,3.856,5.065,5.983,7.414
			c1.152,1.273,2.685,2.285,4.214,3.1c0.818,0.434,1.997,0.191,3.684,0.296c-0.54,1.521-0.981,2.669-1.351,3.839
			c-0.254,0.809-0.841,1.918-0.529,2.425c1.039,1.673,6.922,0.749,7.233-1.194c0.615-3.847,2.514-7.372,1.372-11.682
			c-1.651-6.236-0.057-8.108,6.06-10.066c2.546-0.816,4.039-0.313,4.491,2.393c1.023,6.131,2.167,12.248,2.948,18.411
			c0.31,2.421,0.111,5.028-0.435,7.422c-1.115,4.893-3.645,8.948-7.897,11.907c-0.876,0.608-1.219,2.225-1.427,3.444
			c-0.078,0.459,0.894,1.528,1.438,1.568c0.976,0.065,1.993-0.436,3.249-0.771c1.725,2.352,5.505,1.841,6.78-1.59
			c1.842-4.949,4.554-9.281,7.913-13.324c3.583-4.307,7.069-8.719,10.298-13.295c1.638-2.317,2.623-5.097,3.963-7.796
			c9.134,5.495,18.423,10.391,21.447,21.656c1.05,3.905,2.538,7.598-1.714,10.629c-0.628,0.449-0.774,1.795-0.795,2.733
			c-0.009,0.306,1.141,0.964,1.675,0.883c0.926-0.141,1.89-0.595,2.63-1.181c0.285-0.225,0.293-0.787,0.27-0.957
			c0.598,0.592,1.401,2.011,2.394,2.159c2.549,0.377,3.705-1.672,4.229-6.863c1.062-0.287,2.181-0.526,3.256-0.892
			c4.968-1.676,10.045-3.479,13.005-8.064c1.638-2.536,3.198-3.479,6.162-3.387c1.359,0.043,2.774-1.626,4.164-2.517
			c-0.89-1.002-1.591-2.389-2.701-2.933c-2.499-1.22-3.144-2.821-2.026-5.291c0.472-1.041,0.902-2.102,1.26-3.185
			c3.094-9.379,6.452-18.681,9.091-28.186c0.923-3.325,1.277-6.361,4.753-8.043c0.897-0.438,1.671-1.672,1.977-2.696
			c1.234-4.147,4.748-5.358,8.588-7.256c-0.733,6.836,0.504,13.368-3.635,19.077c-1.697,2.344-2.89,5.06-4.266,7.631
			c-2.188,4.094-1.956,5.556,1.368,8.78c0.821,0.796,1.706,1.536,2.599,2.249c5.132,4.09,10.276,8.161,15.416,12.243
			c4.82,3.828,4.211,6.662,1.007,11.185c-0.905,1.276-1.116,3.044-1.645,4.587c1.579-0.402,3.196-0.694,4.716-1.256
			c0.844-0.312,1.49-1.128,2.279-1.626c2.621-1.641,5.264-3.241,8.001-4.92c1.735,6.793,1.414,7.315-4.75,9.378
			c-0.818,0.272-1.44,1.133-2.155,1.723c0.875,0.41,1.757,1.176,2.624,1.161c3.365-0.058,6.728-0.537,10.091-0.537
			C273.724,124.963,274.543,124.232,273.673,120.226 M73.461,109.488c-0.317,0.156-0.633,0.309-0.951,0.466
			c-2.207-1.941-4.538-3.771-6.518-5.926c-0.422-0.455,0.103-2.396,0.772-3.114c1.389-1.496,3.124-2.693,4.802-3.896
			c0.605-0.431,1.655-0.898,2.141-0.648c0.525,0.271,0.918,1.386,0.865,2.091C74.291,102.143,73.848,105.813,73.461,109.488
			 M107.319,90.939c5.655-1.53,8.7,1.112,9.083,7.642C112.291,99.302,109.625,97.105,107.319,90.939 M149.064,103.961
			c-1.287-3.845-1.053-6.868,0.481-9.699c0.282-0.521,1.744-0.941,2.312-0.671c1.555,0.743,2.918,1.881,5.239,3.462
			C154.222,99.524,151.806,101.604,149.064,103.961 M159.243,90.643c-1.715-1.275-3.434-2.557-5.149-3.835
			c0.206-0.294,0.41-0.589,0.616-0.882c1.785,1.184,3.569,2.368,5.35,3.553C159.788,89.868,159.517,90.255,159.243,90.643
			 M203.943,104.116c-3.322,4.25-6.416,8.676-9.792,12.874c-1.175,1.462-2.91,2.477-5.048,4.243
			c-1.457-7.746-2.656-14.48-4.04-21.18c-0.296-1.435-1.139-2.803-1.948-4.063c-0.605-0.947-1.603-1.628-2.347-2.497
			c-6.163-7.169-5.813-18.415,1.401-25.352c2.708,2.728,5.453,5.449,8.148,8.218c5.813,5.969,9.782,13.229,14.078,20.248
			C205.938,99.129,205.875,101.646,203.943,104.116 M241.26,88.005c-1.303-1.238-1.574-2.521-0.218-3.744
			c2.528-2.278,5.168-4.438,8.418-7.201c1.712,10.757,5.066,20.229,10.565,28.9C253.771,99.971,247.531,93.97,241.26,88.005"/>
		<path fill="#048028" d="M392.098,97.385h8.678v0.683h-0.477c-0.32,0-0.783,0.14-1.395,0.416c-0.611,0.287-1.17,0.691-1.668,1.213
			c-0.502,0.528-1.117,1.387-1.854,2.566l-5.996,9.447v6.236c0,1.525,0.166,2.478,0.514,2.858c0.463,0.514,1.195,0.771,2.199,0.771
			h0.811v0.676h-10.563v-0.676h0.876c1.051,0,1.798-0.32,2.238-0.952c0.268-0.395,0.403-1.286,0.403-2.677v-5.892l-6.822-10.419
			c-0.81-1.218-1.355-1.989-1.644-2.29c-0.287-0.306-0.883-0.674-1.786-1.099c-0.247-0.124-0.603-0.183-1.063-0.183v-0.682h10.638
			v0.682h-0.552c-0.575,0-1.104,0.133-1.587,0.403c-0.48,0.262-0.724,0.667-0.724,1.212c0,0.439,0.37,1.231,1.119,2.384l5.19,8.01
			l4.878-7.667c0.736-1.146,1.1-2.003,1.1-2.566c0-0.337-0.088-0.646-0.268-0.917c-0.174-0.264-0.428-0.477-0.758-0.63
			c-0.33-0.155-0.824-0.229-1.488-0.229v-0.68H392.098z"/>
		<path fill="#048028" d="M406.955,104.964c2.543,0,4.586,0.962,6.125,2.896c1.309,1.654,1.965,3.545,1.965,5.687
			c0,1.504-0.363,3.021-1.084,4.564c-0.723,1.541-1.715,2.705-2.982,3.485c-1.266,0.783-2.672,1.17-4.225,1.17
			c-2.531,0-4.545-1.004-6.033-3.02c-1.262-1.702-1.889-3.61-1.889-5.724c0-1.54,0.381-3.075,1.145-4.602
			c0.77-1.518,1.771-2.638,3.02-3.373C404.238,105.322,405.563,104.964,406.955,104.964 M406.387,106.15
			c-0.65,0-1.299,0.189-1.955,0.581c-0.652,0.383-1.18,1.063-1.584,2.024c-0.404,0.97-0.605,2.208-0.605,3.728
			c0,2.443,0.482,4.554,1.455,6.321c0.971,1.775,2.25,2.665,3.844,2.665c1.184,0,2.164-0.49,2.934-1.468
			c0.77-0.982,1.154-2.663,1.154-5.047c0-2.979-0.641-5.326-1.924-7.043C408.836,106.737,407.729,106.15,406.387,106.15"/>
		<path fill="#048028" d="M432.246,105.453v10.183c0,1.944,0.045,3.134,0.135,3.566c0.092,0.432,0.24,0.734,0.439,0.91
			c0.203,0.167,0.438,0.254,0.709,0.254c0.379,0,0.809-0.101,1.287-0.315l0.254,0.646l-5.025,2.07h-0.824v-3.558
			c-1.447,1.568-2.547,2.552-3.303,2.958c-0.758,0.402-1.559,0.601-2.402,0.601c-0.943,0-1.756-0.271-2.449-0.814
			c-0.691-0.543-1.172-1.247-1.438-2.098c-0.275-0.857-0.406-2.068-0.406-3.63v-7.506c0-0.791-0.086-1.344-0.256-1.652
			c-0.172-0.301-0.426-0.542-0.762-0.704c-0.334-0.168-0.943-0.24-1.822-0.228v-0.683h5.887v11.248c0,1.563,0.271,2.59,0.814,3.079
			c0.549,0.485,1.205,0.737,1.975,0.737c0.523,0,1.123-0.17,1.785-0.503c0.67-0.327,1.461-0.959,2.379-1.884v-9.523
			c0-0.951-0.176-1.598-0.523-1.936c-0.35-0.33-1.074-0.515-2.172-0.536v-0.683H432.246z"/>
		<path fill="#048028" d="M441.215,104.964v3.776c1.404-2.522,2.848-3.776,4.328-3.776c0.67,0,1.23,0.205,1.668,0.61
			c0.439,0.408,0.662,0.887,0.662,1.422c0,0.477-0.162,0.879-0.477,1.212c-0.32,0.33-0.697,0.5-1.139,0.5
			c-0.428,0-0.91-0.215-1.439-0.639c-0.533-0.417-0.924-0.63-1.18-0.63c-0.221,0-0.459,0.126-0.715,0.367
			c-0.553,0.508-1.121,1.327-1.709,2.481v8.045c0,0.932,0.113,1.636,0.348,2.114c0.16,0.331,0.441,0.604,0.844,0.822
			c0.404,0.222,0.984,0.33,1.744,0.33v0.661h-8.604V121.6c0.855,0,1.488-0.134,1.906-0.402c0.305-0.189,0.518-0.509,0.645-0.934
			c0.059-0.213,0.092-0.798,0.092-1.78v-6.508c0-1.958-0.039-3.126-0.121-3.5c-0.076-0.366-0.223-0.637-0.441-0.816
			c-0.213-0.166-0.48-0.254-0.797-0.254c-0.379,0-0.807,0.094-1.283,0.279l-0.184-0.661l5.082-2.055h0.77V104.964z"/>
		<path fill="#048028" d="M470.758,96.817c3.229,0,6.025,1.226,8.393,3.677c2.363,2.45,3.549,5.51,3.549,9.179
			c0,3.776-1.191,6.916-3.576,9.412c-2.385,2.495-5.271,3.741-8.658,3.741c-3.424,0-6.299-1.217-8.629-3.654
			c-2.332-2.428-3.494-5.582-3.494-9.44c0-3.955,1.344-7.175,4.037-9.667C464.711,97.899,467.51,96.817,470.758,96.817
			 M470.41,98.154c-2.225,0-4.012,0.829-5.355,2.48c-1.676,2.054-2.51,5.061-2.51,9.023c0,4.058,0.863,7.183,2.605,9.367
			c1.33,1.668,3.092,2.496,5.281,2.496c2.33,0,4.262-0.909,5.785-2.73c1.521-1.826,2.283-4.695,2.283-8.619
			c0-4.254-0.84-7.431-2.512-9.521C474.643,98.991,472.781,98.154,470.41,98.154"/>
		<path fill="#048028" d="M490.221,108.521c1.967-2.376,3.844-3.557,5.631-3.557c0.916,0,1.705,0.227,2.365,0.681
			c0.662,0.463,1.186,1.22,1.578,2.271c0.268,0.733,0.402,1.861,0.402,3.373v7.178c0,1.063,0.086,1.779,0.258,2.16
			c0.133,0.304,0.352,0.545,0.648,0.713c0.301,0.175,0.854,0.256,1.66,0.256v0.662h-8.311v-0.662h0.352
			c0.781,0,1.326-0.117,1.639-0.36c0.313-0.233,0.529-0.588,0.654-1.049c0.049-0.182,0.074-0.765,0.074-1.724v-6.882
			c0-1.526-0.199-2.633-0.6-3.329c-0.395-0.689-1.064-1.033-2.006-1.033c-1.457,0-2.904,0.798-4.346,2.384v8.864
			c0,1.136,0.064,1.839,0.201,2.104c0.168,0.36,0.408,0.614,0.703,0.778c0.303,0.166,0.91,0.247,1.828,0.247v0.662h-8.309v-0.662
			h0.367c0.855,0,1.432-0.213,1.732-0.652c0.301-0.435,0.451-1.262,0.451-2.48v-6.235c0-2.017-0.049-3.249-0.141-3.688
			c-0.092-0.441-0.232-0.744-0.422-0.896c-0.189-0.16-0.443-0.243-0.76-0.243c-0.342,0-0.748,0.096-1.229,0.281l-0.275-0.662
			l5.064-2.054h0.787V108.521z"/>
		<path fill="#048028" d="M509.879,96.175v22.287c0,1.051,0.078,1.746,0.229,2.089c0.154,0.338,0.389,0.604,0.709,0.778
			c0.314,0.176,0.908,0.264,1.781,0.264v0.661h-8.236v-0.661c0.77,0,1.293-0.08,1.578-0.234c0.279-0.161,0.496-0.427,0.66-0.791
			c0.16-0.369,0.24-1.073,0.24-2.105v-15.259c0-1.901-0.047-3.061-0.129-3.501c-0.088-0.433-0.223-0.724-0.414-0.889
			c-0.186-0.154-0.428-0.233-0.723-0.233c-0.32,0-0.723,0.093-1.211,0.293l-0.313-0.645l5.008-2.054H509.879z"/>
		<path fill="#048028" d="M520.332,104.964v13.498c0,1.051,0.078,1.746,0.229,2.097c0.154,0.344,0.383,0.608,0.678,0.778
			c0.303,0.176,0.85,0.256,1.643,0.256v0.661h-8.162v-0.661c0.818,0,1.369-0.08,1.652-0.234c0.279-0.161,0.504-0.427,0.668-0.791
			c0.166-0.369,0.248-1.073,0.248-2.105v-6.476c0-1.821-0.053-3.001-0.164-3.537c-0.09-0.396-0.221-0.667-0.402-0.821
			c-0.184-0.146-0.438-0.229-0.752-0.229c-0.346,0-0.76,0.096-1.248,0.281l-0.254-0.662l5.063-2.054H520.332z M518.813,96.175
			c0.514,0,0.949,0.181,1.309,0.542c0.363,0.36,0.545,0.798,0.545,1.313c0,0.516-0.182,0.953-0.545,1.321
			c-0.359,0.365-0.795,0.55-1.309,0.55c-0.516,0-0.953-0.185-1.32-0.55c-0.365-0.368-0.549-0.811-0.549-1.321
			c0-0.515,0.18-0.952,0.541-1.313C517.844,96.355,518.283,96.175,518.813,96.175"/>
		<path fill="#048028" d="M529.873,108.521c1.967-2.376,3.844-3.557,5.631-3.557c0.916,0,1.705,0.227,2.363,0.681
			c0.664,0.463,1.186,1.22,1.58,2.271c0.266,0.733,0.4,1.861,0.4,3.373v7.178c0,1.063,0.086,1.779,0.258,2.16
			c0.133,0.304,0.352,0.545,0.648,0.713c0.303,0.175,0.854,0.256,1.662,0.256v0.662h-8.311v-0.662h0.352
			c0.781,0,1.326-0.117,1.639-0.36c0.313-0.233,0.529-0.588,0.652-1.049c0.049-0.182,0.074-0.765,0.074-1.724v-6.882
			c0-1.526-0.197-2.633-0.598-3.329c-0.395-0.689-1.064-1.033-2.008-1.033c-1.455,0-2.906,0.798-4.344,2.384v8.864
			c0,1.136,0.064,1.839,0.199,2.104c0.17,0.36,0.408,0.614,0.703,0.778c0.305,0.166,0.91,0.247,1.828,0.247v0.662h-8.309v-0.662
			h0.369c0.855,0,1.432-0.213,1.732-0.652c0.299-0.435,0.451-1.262,0.451-2.48v-6.235c0-2.017-0.049-3.249-0.141-3.688
			c-0.094-0.441-0.234-0.744-0.422-0.896c-0.189-0.16-0.445-0.243-0.76-0.243c-0.344,0-0.752,0.096-1.23,0.281l-0.275-0.662
			l5.063-2.054h0.791V108.521z"/>
		<path fill="#048028" d="M546.58,111.786c-0.014,2.495,0.588,4.444,1.814,5.869c1.221,1.414,2.658,2.129,4.311,2.129
			c1.1,0,2.057-0.308,2.867-0.908c0.814-0.61,1.498-1.645,2.049-3.113l0.568,0.366c-0.258,1.681-1.006,3.2-2.238,4.58
			c-1.238,1.372-2.785,2.061-4.639,2.061c-2.018,0-3.746-0.783-5.186-2.355c-1.432-1.567-2.152-3.682-2.152-6.339
			c0-2.865,0.736-5.113,2.209-6.721c1.475-1.605,3.322-2.412,5.551-2.412c1.881,0,3.428,0.623,4.639,1.862
			c1.211,1.24,1.816,2.897,1.816,4.981H546.58z M546.58,110.724h7.773c-0.063-1.081-0.189-1.835-0.385-2.278
			c-0.311-0.689-0.764-1.223-1.367-1.612c-0.605-0.396-1.238-0.586-1.896-0.586c-1.018,0-1.924,0.389-2.725,1.18
			C547.182,108.213,546.713,109.313,546.58,110.724"/>
		<path fill="#048028" d="M582.379,96.817c3.229,0,6.023,1.226,8.391,3.677c2.363,2.45,3.549,5.51,3.549,9.179
			c0,3.776-1.191,6.916-3.576,9.412c-2.383,2.495-5.271,3.741-8.658,3.741c-3.426,0-6.299-1.217-8.631-3.654
			c-2.328-2.428-3.49-5.582-3.49-9.44c0-3.955,1.344-7.175,4.035-9.667C576.332,97.899,579.125,96.817,582.379,96.817
			 M582.031,98.154c-2.227,0-4.012,0.829-5.355,2.48c-1.678,2.054-2.512,5.061-2.512,9.023c0,4.058,0.865,7.183,2.605,9.367
			c1.328,1.668,3.09,2.496,5.281,2.496c2.33,0,4.262-0.909,5.785-2.73c1.52-1.826,2.283-4.695,2.283-8.619
			c0-4.254-0.84-7.431-2.512-9.521C586.26,98.991,584.4,98.154,582.031,98.154"/>
		<path fill="#048028" d="M601.857,104.964v3.776c1.404-2.522,2.846-3.776,4.326-3.776c0.67,0,1.23,0.205,1.668,0.61
			c0.441,0.408,0.662,0.887,0.662,1.422c0,0.477-0.162,0.879-0.475,1.212c-0.322,0.33-0.699,0.5-1.139,0.5
			c-0.43,0-0.91-0.215-1.443-0.639c-0.529-0.417-0.922-0.63-1.176-0.63c-0.223,0-0.459,0.126-0.717,0.367
			c-0.551,0.508-1.119,1.327-1.707,2.481v8.045c0,0.932,0.113,1.636,0.348,2.114c0.158,0.331,0.439,0.604,0.844,0.822
			c0.404,0.222,0.984,0.33,1.742,0.33v0.661h-8.604V121.6c0.857,0,1.49-0.134,1.908-0.402c0.303-0.189,0.516-0.509,0.643-0.934
			c0.061-0.213,0.092-0.798,0.092-1.78v-6.508c0-1.958-0.039-3.126-0.119-3.5c-0.08-0.366-0.225-0.637-0.441-0.816
			c-0.215-0.166-0.482-0.254-0.797-0.254c-0.383,0-0.807,0.094-1.285,0.279l-0.182-0.661l5.08-2.055h0.771V104.964z"/>
		<path fill="#048028" d="M613.264,116.128c-1.025-0.5-1.814-1.204-2.365-2.096c-0.547-0.904-0.824-1.895-0.824-2.981
			c0-1.665,0.629-3.095,1.879-4.292c1.254-1.203,2.859-1.795,4.816-1.795c1.602,0,2.992,0.388,4.164,1.172h3.557
			c0.525,0,0.832,0.015,0.918,0.047c0.086,0.027,0.148,0.078,0.182,0.153c0.072,0.11,0.109,0.308,0.109,0.588
			c0,0.321-0.033,0.543-0.092,0.661c-0.037,0.065-0.104,0.107-0.195,0.146c-0.09,0.037-0.4,0.06-0.924,0.06h-2.182
			c0.682,0.879,1.025,2.002,1.025,3.376c0,1.561-0.604,2.903-1.795,4.011c-1.201,1.115-2.807,1.674-4.824,1.674
			c-0.832,0-1.684-0.126-2.551-0.37c-0.541,0.463-0.902,0.868-1.092,1.22c-0.188,0.344-0.283,0.646-0.283,0.888
			c0,0.215,0.102,0.41,0.303,0.61c0.201,0.189,0.596,0.336,1.186,0.416c0.338,0.054,1.197,0.095,2.564,0.135
			c2.518,0.06,4.15,0.146,4.896,0.254c1.139,0.154,2.043,0.582,2.721,1.261c0.678,0.689,1.02,1.533,1.02,2.53
			c0,1.387-0.65,2.679-1.945,3.89c-1.906,1.789-4.396,2.68-7.463,2.68c-2.363,0-4.354-0.529-5.98-1.594
			c-0.916-0.618-1.373-1.248-1.373-1.908c0-0.294,0.066-0.587,0.201-0.879c0.207-0.455,0.635-1.085,1.285-1.893
			c0.084-0.109,0.709-0.77,1.869-1.981c-0.639-0.375-1.084-0.719-1.35-1.019c-0.262-0.294-0.395-0.638-0.395-1.012
			c0-0.435,0.174-0.933,0.523-1.507C611.199,117.993,612.002,117.185,613.264,116.128 M613.082,122.253
			c-0.576,0.622-1.01,1.204-1.299,1.747c-0.295,0.535-0.443,1.033-0.443,1.48c0,0.589,0.354,1.101,1.064,1.54
			c1.221,0.764,2.99,1.138,5.301,1.138c2.203,0,3.824-0.388,4.869-1.164c1.045-0.771,1.568-1.602,1.568-2.48
			c0-0.636-0.313-1.093-0.938-1.357c-0.637-0.272-1.893-0.435-3.777-0.476C616.676,122.605,614.561,122.467,613.082,122.253
			 M616.457,105.842c-0.904,0-1.666,0.359-2.275,1.081c-0.611,0.724-0.918,1.825-0.918,3.322c0,1.927,0.416,3.424,1.248,4.488
			c0.635,0.809,1.439,1.213,2.422,1.213c0.93,0,1.691-0.346,2.291-1.044c0.598-0.697,0.898-1.789,0.898-3.287
			c0-1.942-0.42-3.462-1.266-4.564C618.236,106.247,617.43,105.842,616.457,105.842"/>
		<path fill="#048028" d="M637.07,119.835c-1.723,1.334-2.807,2.103-3.248,2.309c-0.662,0.31-1.365,0.464-2.107,0.464
			c-1.164,0-2.123-0.397-2.871-1.197c-0.752-0.792-1.127-1.842-1.127-3.134c0-0.821,0.182-1.532,0.549-2.127
			c0.502-0.838,1.373-1.614,2.611-2.349c1.244-0.735,3.305-1.628,6.193-2.677v-0.663c0-1.681-0.268-2.824-0.801-3.448
			c-0.529-0.623-1.305-0.938-2.316-0.938c-0.771,0-1.385,0.214-1.834,0.624c-0.467,0.417-0.697,0.897-0.697,1.431l0.035,1.064
			c0,0.563-0.141,0.997-0.432,1.307c-0.289,0.3-0.666,0.453-1.125,0.453c-0.457,0-0.824-0.153-1.113-0.475
			c-0.287-0.316-0.428-0.75-0.428-1.299c0-1.057,0.533-2.019,1.613-2.898c1.074-0.881,2.584-1.321,4.531-1.321
			c1.486,0,2.713,0.251,3.668,0.751c0.717,0.38,1.252,0.977,1.594,1.78c0.221,0.523,0.33,1.601,0.33,3.228v5.7
			c0,1.607,0.029,2.583,0.094,2.941c0.059,0.366,0.16,0.608,0.299,0.725c0.145,0.127,0.303,0.184,0.49,0.184
			c0.193,0,0.365-0.046,0.512-0.127c0.258-0.159,0.752-0.61,1.486-1.343v1.024c-1.371,1.834-2.678,2.754-3.922,2.754
			c-0.604,0-1.08-0.205-1.434-0.624C637.264,121.55,637.082,120.84,637.07,119.835 M637.07,118.645v-6.404
			c-1.85,0.733-3.041,1.251-3.576,1.561c-0.969,0.534-1.66,1.098-2.074,1.687c-0.416,0.587-0.623,1.225-0.623,1.923
			c0,0.878,0.26,1.613,0.791,2.192c0.521,0.583,1.129,0.874,1.813,0.874C634.33,120.478,635.553,119.861,637.07,118.645"/>
		<path fill="#048028" d="M649.119,108.521c1.967-2.376,3.846-3.557,5.631-3.557c0.916,0,1.707,0.227,2.365,0.681
			c0.662,0.463,1.186,1.22,1.578,2.271c0.268,0.733,0.402,1.861,0.402,3.373v7.178c0,1.063,0.086,1.779,0.258,2.16
			c0.133,0.304,0.354,0.545,0.648,0.713c0.301,0.175,0.855,0.256,1.662,0.256v0.662h-8.309v-0.662h0.348
			c0.783,0,1.328-0.117,1.641-0.36c0.311-0.233,0.527-0.588,0.652-1.049c0.049-0.182,0.074-0.765,0.074-1.724v-6.882
			c0-1.526-0.199-2.633-0.596-3.329c-0.396-0.689-1.068-1.033-2.01-1.033c-1.455,0-2.904,0.798-4.346,2.384v8.864
			c0,1.136,0.066,1.839,0.201,2.104c0.17,0.36,0.408,0.614,0.703,0.778c0.303,0.166,0.912,0.247,1.828,0.247v0.662h-8.309v-0.662
			h0.369c0.854,0,1.434-0.213,1.732-0.652c0.299-0.435,0.447-1.262,0.447-2.48v-6.235c0-2.017-0.045-3.249-0.139-3.688
			c-0.092-0.441-0.232-0.744-0.422-0.896c-0.186-0.16-0.443-0.243-0.756-0.243c-0.348,0-0.752,0.096-1.232,0.281l-0.275-0.662
			l5.063-2.054h0.789V108.521z"/>
		<path fill="#048028" d="M668.799,104.964v13.498c0,1.051,0.078,1.746,0.227,2.097c0.154,0.344,0.383,0.608,0.678,0.778
			c0.303,0.176,0.85,0.256,1.643,0.256v0.661h-8.162v-0.661c0.818,0,1.369-0.08,1.654-0.234c0.279-0.161,0.502-0.427,0.668-0.791
			c0.164-0.369,0.248-1.073,0.248-2.105v-6.476c0-1.821-0.055-3.001-0.166-3.537c-0.088-0.396-0.221-0.667-0.4-0.821
			c-0.186-0.146-0.439-0.229-0.752-0.229c-0.348,0-0.76,0.096-1.25,0.281l-0.254-0.662l5.061-2.054H668.799z M667.277,96.175
			c0.516,0,0.951,0.181,1.311,0.542c0.363,0.36,0.543,0.798,0.543,1.313c0,0.516-0.18,0.953-0.543,1.321
			c-0.359,0.365-0.795,0.55-1.311,0.55c-0.514,0-0.951-0.185-1.32-0.55c-0.367-0.368-0.549-0.811-0.549-1.321
			c0-0.515,0.18-0.952,0.541-1.313C666.309,96.355,666.75,96.175,667.277,96.175"/>
		<path fill="#048028" d="M687.707,115.871c-0.453,2.215-1.34,3.918-2.658,5.108c-1.32,1.197-2.785,1.788-4.385,1.788
			c-1.908,0-3.572-0.798-4.988-2.398c-1.42-1.607-2.129-3.771-2.129-6.493c0-2.641,0.785-4.79,2.355-6.441
			c1.574-1.649,3.461-2.471,5.658-2.471c1.654,0,3.01,0.434,4.074,1.305c1.063,0.879,1.594,1.783,1.594,2.729
			c0,0.463-0.148,0.837-0.451,1.125c-0.297,0.293-0.719,0.434-1.254,0.434c-0.723,0-1.264-0.228-1.633-0.698
			c-0.207-0.256-0.346-0.74-0.416-1.465c-0.064-0.72-0.311-1.271-0.738-1.652c-0.43-0.367-1.023-0.551-1.779-0.551
			c-1.227,0-2.209,0.457-2.955,1.359c-0.99,1.203-1.486,2.779-1.486,4.753c0,2.003,0.49,3.771,1.475,5.304
			c0.986,1.54,2.316,2.303,3.992,2.303c1.197,0,2.273-0.41,3.229-1.225c0.67-0.564,1.324-1.586,1.961-3.067L687.707,115.871z"/>
		<path fill="#048028" d="M715.547,96.818v8.597h-0.676c-0.221-1.649-0.617-2.964-1.186-3.937c-0.568-0.984-1.379-1.755-2.43-2.333
			c-1.053-0.57-2.143-0.857-3.266-0.857c-1.271,0-2.324,0.387-3.154,1.159c-0.832,0.776-1.246,1.665-1.246,2.656
			c0,0.757,0.26,1.443,0.791,2.068c0.752,0.918,2.559,2.143,5.408,3.667c2.322,1.249,3.91,2.211,4.76,2.869
			c0.85,0.67,1.504,1.452,1.961,2.362c0.459,0.903,0.689,1.849,0.689,2.839c0,1.887-0.73,3.508-2.193,4.873
			c-1.459,1.365-3.344,2.047-5.639,2.047c-0.725,0-1.4-0.06-2.033-0.168c-0.383-0.06-1.168-0.286-2.359-0.667
			c-1.193-0.39-1.949-0.582-2.266-0.582c-0.305,0-0.547,0.095-0.723,0.279c-0.178,0.184-0.311,0.558-0.395,1.138h-0.678v-8.532
			h0.678c0.314,1.791,0.746,3.128,1.285,4.005c0.535,0.891,1.359,1.629,2.465,2.218c1.105,0.587,2.322,0.879,3.643,0.879
			c1.525,0,2.736-0.404,3.621-1.212c0.887-0.807,1.33-1.761,1.33-2.86c0-0.615-0.168-1.231-0.508-1.855
			c-0.334-0.622-0.857-1.203-1.566-1.738c-0.475-0.368-1.777-1.151-3.904-2.342c-2.127-1.197-3.641-2.144-4.539-2.854
			c-0.898-0.704-1.582-1.486-2.043-2.348c-0.469-0.851-0.699-1.797-0.699-2.823c0-1.784,0.684-3.322,2.055-4.615
			c1.369-1.285,3.111-1.93,5.229-1.93c1.32,0,2.719,0.322,4.201,0.97c0.682,0.309,1.164,0.461,1.445,0.461
			c0.316,0,0.578-0.093,0.779-0.286c0.201-0.189,0.363-0.57,0.488-1.145h0.674V96.818z"/>
		<path fill="#048028" d="M725.268,99.937v5.519h3.926v1.282h-3.926v10.896c0,1.091,0.154,1.826,0.467,2.201
			c0.314,0.382,0.713,0.57,1.207,0.57c0.4,0,0.789-0.124,1.17-0.381c0.379-0.249,0.672-0.616,0.879-1.106h0.717
			c-0.43,1.203-1.033,2.098-1.814,2.707c-0.785,0.6-1.592,0.91-2.424,0.91c-0.563,0-1.115-0.162-1.65-0.47
			c-0.541-0.316-0.936-0.757-1.191-1.344c-0.258-0.582-0.387-1.474-0.387-2.685v-11.299h-2.66v-0.602
			c0.67-0.271,1.361-0.725,2.063-1.372c0.703-0.636,1.332-1.398,1.881-2.279c0.279-0.463,0.672-1.314,1.174-2.548H725.268z"/>
		<path fill="#048028" d="M739.041,104.964c2.543,0,4.586,0.962,6.125,2.896c1.309,1.654,1.965,3.545,1.965,5.687
			c0,1.504-0.363,3.021-1.084,4.564c-0.723,1.541-1.715,2.705-2.982,3.485c-1.264,0.783-2.672,1.17-4.223,1.17
			c-2.533,0-4.547-1.004-6.033-3.02c-1.262-1.702-1.891-3.61-1.891-5.724c0-1.54,0.381-3.075,1.145-4.602
			c0.766-1.518,1.773-2.638,3.02-3.373C736.33,105.322,737.646,104.964,739.041,104.964 M738.473,106.15
			c-0.65,0-1.297,0.189-1.955,0.581c-0.652,0.383-1.18,1.063-1.584,2.024c-0.404,0.97-0.605,2.208-0.605,3.728
			c0,2.443,0.482,4.554,1.457,6.321c0.973,1.775,2.252,2.665,3.846,2.665c1.184,0,2.16-0.49,2.934-1.468
			c0.77-0.982,1.156-2.663,1.156-5.047c0-2.979-0.643-5.326-1.93-7.043C740.924,106.737,739.816,106.15,738.473,106.15"/>
		<path fill="#048028" d="M754.521,104.964v3.776c1.404-2.522,2.846-3.776,4.326-3.776c0.672,0,1.232,0.205,1.67,0.61
			c0.439,0.408,0.66,0.887,0.66,1.422c0,0.477-0.162,0.879-0.475,1.212c-0.322,0.33-0.697,0.5-1.139,0.5
			c-0.43,0-0.908-0.215-1.439-0.639c-0.533-0.417-0.926-0.63-1.182-0.63c-0.221,0-0.457,0.126-0.715,0.367
			c-0.551,0.508-1.121,1.327-1.707,2.481v8.045c0,0.932,0.113,1.636,0.348,2.114c0.158,0.331,0.441,0.604,0.844,0.822
			c0.402,0.222,0.984,0.33,1.742,0.33v0.661h-8.604V121.6c0.855,0,1.49-0.134,1.908-0.402c0.305-0.189,0.518-0.509,0.643-0.934
			c0.061-0.213,0.092-0.798,0.092-1.78v-6.508c0-1.958-0.039-3.126-0.119-3.5c-0.078-0.366-0.223-0.637-0.441-0.816
			c-0.213-0.166-0.48-0.254-0.797-0.254c-0.381,0-0.807,0.094-1.285,0.279l-0.182-0.661l5.082-2.055h0.77V104.964z"/>
		<path fill="#048028" d="M764.939,111.786c-0.014,2.495,0.592,4.444,1.814,5.869c1.221,1.414,2.66,2.129,4.311,2.129
			c1.102,0,2.059-0.308,2.869-0.908c0.814-0.61,1.496-1.645,2.047-3.113l0.566,0.366c-0.254,1.681-1.004,3.2-2.234,4.58
			c-1.236,1.372-2.785,2.061-4.641,2.061c-2.016,0-3.746-0.783-5.184-2.355c-1.434-1.567-2.154-3.682-2.154-6.339
			c0-2.865,0.738-5.113,2.211-6.721c1.473-1.605,3.322-2.412,5.549-2.412c1.879,0,3.428,0.623,4.641,1.862
			c1.211,1.24,1.813,2.897,1.813,4.981H764.939z M764.939,110.724h7.775c-0.061-1.081-0.189-1.835-0.387-2.278
			c-0.309-0.689-0.764-1.223-1.367-1.612c-0.604-0.396-1.238-0.586-1.896-0.586c-1.014,0-1.922,0.389-2.725,1.18
			C765.543,108.213,765.072,109.313,764.939,110.724"/>
	</g>
	<g>
		<path fill="#0D8040" d="M759.727,60.504c2.898,0,5.656,0.719,8.316,2.16c2.645,1.438,4.73,3.51,6.238,6.207
			c1.525,2.689,2.266,5.515,2.266,8.461c0,2.914-0.732,5.713-2.219,8.367c-1.477,2.662-3.553,4.739-6.215,6.212
			c-2.652,1.492-5.457,2.238-8.387,2.238s-5.725-0.746-8.371-2.238c-2.66-1.473-4.729-3.55-6.221-6.212
			c-1.479-2.654-2.221-5.453-2.221-8.367c0-2.946,0.758-5.771,2.266-8.461c1.518-2.697,3.602-4.77,6.248-6.207
			C754.08,61.223,756.854,60.504,759.727,60.504z M759.758,63.798c-2.32,0-4.531,0.575-6.664,1.732
			c-2.1,1.156-3.783,2.814-5.008,4.975c-1.23,2.186-1.832,4.441-1.832,6.827c0,2.358,0.592,4.597,1.777,6.732
			c1.207,2.14,2.875,3.807,5.006,5.019c2.133,1.186,4.377,1.78,6.721,1.78c2.354,0,4.605-0.595,6.729-1.78
			c2.123-1.212,3.799-2.879,4.992-5.019c1.199-2.136,1.809-4.374,1.809-6.732c0-2.386-0.617-4.642-1.842-6.827
			c-1.217-2.16-2.898-3.818-5.014-4.975C764.299,64.373,762.064,63.798,759.758,63.798z M752.131,86.323V68.472h3.625
			c3.393,0,5.299,0.008,5.709,0.051c1.209,0.092,2.131,0.337,2.803,0.711c0.662,0.376,1.225,0.951,1.682,1.714
			c0.436,0.766,0.664,1.628,0.664,2.558c0,1.28-0.426,2.395-1.271,3.301c-0.838,0.921-2.021,1.483-3.537,1.708
			c0.545,0.197,0.953,0.419,1.246,0.663c0.293,0.248,0.695,0.703,1.193,1.383c0.133,0.169,0.592,0.9,1.334,2.166l2.109,3.598h-4.484
			l-1.494-2.898c-1.02-1.939-1.84-3.165-2.504-3.667c-0.662-0.518-1.482-0.762-2.502-0.762h-0.947v7.327H752.131z M755.756,76.181
			h1.475c2.086,0,3.389-0.089,3.895-0.241c0.514-0.155,0.9-0.436,1.191-0.835c0.309-0.408,0.451-0.867,0.451-1.381
			c0-0.493-0.143-0.94-0.418-1.33c-0.293-0.392-0.703-0.668-1.232-0.833c-0.521-0.17-1.824-0.254-3.887-0.254h-1.475V76.181z"/>
	</g>
</g>
</svg>
