<svg xmlns="http://www.w3.org/2000/svg" viewBox="0 0 24 24" width="24" height="24" fill="#ffffff">
  <path d="M12.031,21.042c-1.631,0-3.23-0.438-4.636-1.267l-0.332-0.196l-3.447,0.904l0.921-3.361l-0.215-0.342 A8.932,8.932,0,0,1,3.064,12.11c0-4.962,4.037-9,9-9s9,4.038,9,9S17,21.042,12.031,21.042z M7.05,18.114l0.216,0.128 c1.378,0.817,2.946,1.25,4.566,1.25c4.135,0,7.5-3.365,7.5-7.5s-3.365-7.5-7.5-7.5s-7.5,3.365-7.5,7.5 c0,1.487,0.387,2.936,1.121,4.223l0.139,0.243l-0.541,1.972L7.05,18.114z M13.949,14.161c-0.22-0.11-1.3-0.642-1.501-0.715 c-0.201-0.073-0.347-0.11-0.493,0.11c-0.147,0.22-0.569,0.715-0.697,0.861c-0.128,0.147-0.257,0.165-0.477,0.055 c-0.22-0.11-0.928-0.342-1.767-1.091c-0.655-0.583-1.096-1.304-1.224-1.524c-0.128-0.22-0.014-0.339,0.096-0.449 c0.1-0.11,0.22-0.257,0.33-0.385c0.11-0.128,0.147-0.22,0.22-0.367c0.073-0.147,0.037-0.275-0.018-0.385 c-0.055-0.11-0.493-1.192-0.676-1.633c-0.183-0.441-0.367-0.385-0.493-0.385c-0.128,0-0.275-0.018-0.422-0.018 c-0.147,0-0.385,0.055-0.587,0.275c-0.202,0.22-0.77,0.752-0.77,1.743s0.788,2.018,0.898,2.165 c0.11,0.147,1.478,2.257,3.582,3.165c0.501,0.216,1.01,0.385,1.517,0.513c0.501,0.128,1.01,0.22,1.516,0.147 c0.567-0.091,1.3-0.532,1.483-1.045c0.183-0.513,0.183-0.954,0.128-1.045C14.151,14.308,14.004,14.253,13.949,14.161z"/>
</svg>
