<svg xmlns="http://www.w3.org/2000/svg" enable-background="new 0 0 124 124" viewBox="0 0 124 124">
<path fill="#ffffff" fill-rule="evenodd" d="M95.5,75.5c-4.8,0-9.1,2-12.2,5.2l-28.6-16.5c0.2-1.1,0.3-2.3,0.3-3.5s-0.1-2.4-0.3-3.5l28.6-16.5c3.1,3.2,7.4,5.2,12.2,5.2c9.4,0,17-7.6,17-17s-7.6-17-17-17s-17,7.6-17,17c0,1.2,0.1,2.4,0.3,3.5L50.2,48.9c-3.1-3.2-7.4-5.2-12.2-5.2c-9.4,0-17,7.6-17,17s7.6,17,17,17c4.8,0,9.1-2,12.2-5.2l28.6,16.5c-0.2,1.1-0.3,2.2-0.3,3.4c0,9.2,7.5,16.7,16.7,16.7s16.7-7.5,16.7-16.7S104.7,75.5,95.5,75.5z M95.5,20.9c5.1,0,9.3,4.2,9.3,9.3s-4.2,9.3-9.3,9.3s-9.3-4.2-9.3-9.3S90.4,20.9,95.5,20.9z M38,70c-5.1,0-9.3-4.2-9.3-9.3s4.2-9.3,9.3-9.3s9.3,4.2,9.3,9.3S43.1,70,38,70z M95.5,101.4c-5,0-9-4-9-9s4-9,9-9s9,4,9,9S100.5,101.4,95.5,101.4z" clip-rule="evenodd"/>
</svg>
